HIERARCHY
ROOT Spine
{
    OFFSET 0.0 0.0 -0.0
    CHANNELS 6 Xposition Yposition Zposition Zrotation Xrotation Yrotation
    JOINT ShoulderCenter
    {
        OFFSET 0.0 31.740219116210938 0.0
        CHANNELS 3 Zrotation Xrotation Yrotation
        JOINT LeftShoulder
        {
            OFFSET 12.334678649902344 0.0 0.0
            CHANNELS 3 Zrotation Xrotation Yrotation
            JOINT LeftElbow
            {
                OFFSET 28.573638916015625 0.0 0.0
                CHANNELS 3 Zrotation Xrotation Yrotation
                JOINT LeftHand
                {
                    OFFSET 31.148067474365234 0.0 0.0
                    CHANNELS 3 Zrotation Xrotation Yrotation
                    End Site
                    {
                        OFFSET 12.459226608276367 0.0 0.0
                    }
                }
            }
        }
        JOINT RightShoulder
        {
            OFFSET -12.334678649902344 0.0 0.0
            CHANNELS 3 Zrotation Xrotation Yrotation
            JOINT RightElbow
            {
                OFFSET -28.573638916015625 0.0 0.0
                CHANNELS 3 Zrotation Xrotation Yrotation
                JOINT RightHand
                {
                    OFFSET -31.148067474365234 0.0 0.0
                    CHANNELS 3 Zrotation Xrotation Yrotation
                    End Site
                    {
                        OFFSET -12.459226608276367 0.0 0.0
                    }
                }
            }
        }
        End Site
        {
            OFFSET 0.0 12.696088790893555 0.0
        }
    }
    JOINT LeftHip
    {
        OFFSET 15.433502923812371 -15.433502923812371 0.0
        CHANNELS 3 Zrotation Xrotation Yrotation
        JOINT LeftKnee
        {
            OFFSET 0.0 -34.82246017456055 0.0
            CHANNELS 3 Zrotation Xrotation Yrotation
            JOINT LeftFoot
            {
                OFFSET 0.0 -39.95048522949219 0.0
                CHANNELS 3 Zrotation Xrotation Yrotation
                End Site
                {
                    OFFSET 0.0 0.0 15.980195999145508
                }
            }
        }
    }
    JOINT RightHip
    {
        OFFSET -15.433502923812371 -15.433502923812371 0.0
        CHANNELS 3 Zrotation Xrotation Yrotation
        JOINT RightKnee
        {
            OFFSET 0.0 -34.82246017456055 0.0
            CHANNELS 3 Zrotation Xrotation Yrotation
            JOINT RightFoot
            {
                OFFSET 0.0 -39.95048522949219 0.0
                CHANNELS 3 Zrotation Xrotation Yrotation
                End Site
                {
                    OFFSET 0.0 0.0 15.980195999145508
                }
            }
        }
    }
}
MOTION
Frames: 8
Frame Time: 0.03333333333333333
69.4000015258789 36.099998474121094 0.6000000238418579 14.605679712425077 0.902925753472731 -95.51704945093095 6.494123957990226e-07 -1.73809389237289e-06 3.5789340080576566 93.64792230685259 4.835359393227639 -174.21860785121527 -2.46859370397672e-06 4.016939681280804e-06 34.404876323289564 -3.1805546814635164e-15 -2.648343778830095e-31 9.541664044390549e-15 -97.80331570694686 -4.267661058793193 -176.15984933301596 2.4021210853179643e-06 -8.124799274062126e-07 -35.539032283654024 3.1805546814635168e-15 -1.7655625192200634e-31 -6.3611093629270335e-15 -6.829895804729986 -28.102378300324027 -15.279309199348198 5.80207906297658 21.08169902876731 -35.987563773586885 -3.9756933518293955e-16 -2.758691436281349e-33 7.951386703658791e-16 11.548503658555555 -26.80274363942864 17.828111206291524 -4.295113958285081 17.58885157098152 29.94214285265364 0.0 0.0 -1.782849987460995e-15
69.5 36.099998474121094 1.100000023841858 15.175876533412957 0.9034816271420664 -95.73746699055239 -1.4526634736902813e-06 1.7286254022091107e-06 2.568124408497111 93.9725463092382 4.850500678983274 -174.1488791803523 9.096575814180581e-08 4.995198063984224e-06 33.095848048324065 3.1805546814635168e-15 0.0 0.0 -97.43501278525018 -1.8875165775801732 -176.86702609588392 -2.8634798258195846e-06 -4.015357879870989e-06 -35.87465513632501 6.3611093629270335e-15 6.3611093629270335e-15 -3.531125038440127e-31 -7.065245241235247 -28.69818303206753 -15.28347270155345 5.909819456117525 20.808036570259624 -35.68010342146494 9.93923337957349e-16 -7.951386703658792e-16 1.888454342118963e-15 11.018589759303449 -28.28525742659164 15.987195790785712 -3.9566683586440963 18.460619815266575 31.615592670499346 3.975693351829396e-16 9.935599625982047e-33 2.863741617489612e-15
69.5999984741211 36.099998474121094 1.7999999523162842 15.746708802317396 0.7231811525794061 -96.61669646834257 -1.4817322305095998e-06 1.340430526455281e-06 2.14050571962907 94.06384316219362 5.496983470834926 -174.27363944113867 -2.4722842603553237e-06 9.625011325183478e-09 31.910325259951353 6.361109362927035e-15 0.0 0.0 -97.52972954425124 -0.5165899013519114 -177.22190094619933 -3.014080825871999e-06 7.146974136767302e-07 -37.273148083731556 0.0 0.0 0.0 -6.927545950511454 -29.391469134908377 -15.248049765747188 5.3205489914798525 20.787361988626206 -35.14083770981029 0.0 0.0 -1.4908850069360234e-15 10.30734363396818 -29.73167568287468 14.279993751472771 -3.5104518185834133 19.166848569363626 33.13813141800154 -3.975693351829396e-16 -1.987846675914698e-16 4.093721748211831e-15
69.70000457763672 36.099998474121094 2.5 16.664659291107128 0.9027105537846735 -97.79533273495244 3.2945098944259024e-07 -9.193526434751835e-09 2.155131588502919 94.80359354376174 5.280018605609814 -174.1437880467974 4.503159664174163e-06 4.741592949223252e-06 30.775076508150633 0.0 6.3611093629270335e-15 0.0 -97.33607311130488 -0.29202591784384085 -178.0733890958866 -1.517394694838406e-06 -1.5323218717837017e-06 -38.28038302377243 0.0 0.0 6.361109362927033e-15 -6.230780794822705 -30.255308213831164 -14.887441388016805 4.748357581330507 20.27978258869811 -33.825152138758305 1.987846675914698e-16 -3.975693351829396e-16 9.193790876105477e-16 10.720216949679058 -31.843568773182547 11.712271243700837 -4.314960718696492 20.63272069484781 36.390623740536036 0.0 0.0 6.373533404651499e-15
69.9000015258789 36.099998474121094 3.200000047683716 17.80660946999336 0.903087209342064 -98.42240330902199 -1.0763760612134335e-07 -7.228521835122674e-07 1.2904381341233397 95.3138624132712 6.056191585686967 -173.82396056103678 -1.5143055522914364e-06 1.8246598480710973e-07 29.873484145776537 -3.1805546814635168e-15 -8.827812596100317e-32 3.1805546814635168e-15 -97.29778920954193 -0.7626895983721055 -178.947088707722 -4.278030923421038e-06 7.684189131278357e-07 -39.55031911109681 -6.361109362927032e-15 -9.541664044390549e-15 6.361109362927032e-15 -5.609141715693336 -31.273052181027822 -14.53883812145755 4.1568569964488455 19.330011674150626 -32.50742449905541 9.939233379573492e-17 1.9878466759146985e-16 -4.770832022195277e-15 10.7715179001495 -35.78310373130099 5.030306533756942 -6.72264563727185 25.112841934715945 45.83579824323464 0.0 0.0 -3.0563142642188476e-15
70.0999984741211 36.29999923706055 3.799999952316284 18.778038363542876 1.0847923294604807 -98.92072841082307 -3.0583860390134105e-07 1.5226172070466888e-06 0.8111203795336122 96.46880814969545 6.031366183212301 -173.11261447806615 -1.3596296420165807e-06 2.750961515208854e-06 28.978846922444223 0.0 0.0 6.361109362927033e-15 -97.16028980967523 -1.1976055275934823 -178.74684531896415 5.118496383091552e-06 -2.7415840225592383e-06 -41.814207740805365 -3.1805546814635168e-15 9.54166404439055e-15 2.648343778830095e-31 -4.4668247737583044 -32.208293636010744 -13.24911234051412 3.255116778653468 18.15900448886135 -30.841806177720454 -1.9878466759146977e-16 2.6293777752056608e-33 -1.515733090384957e-15 10.655787575967906 -39.29130508466416 -1.714595623113001 -10.532235870735493 32.89174256765675 59.10650927454503 1.590277340731758e-15 7.95138670365879e-16 -2.5842006786891068e-15
70.4000015258789 36.599998474121094 4.099999904632568 19.69023490220796 1.4430562367471904 -98.18419540413225 1.57505639797153e-06 -1.7966052178996816e-06 0.07500205383746311 97.23346796972332 6.534492786559177 -171.9236730816034 -2.387007888289453e-06 1.250852289652333e-06 28.729017540106916 -6.3611093629270335e-15 6.3611093629270335e-15 -6.3611093629270335e-15 -97.28030537677235 -2.2832794231844615 -178.07042499873276 8.637361167662446e-07 -2.2891687187262575e-07 -43.94825851880616 0.0 6.361109362927033e-15 0.0 -4.300388655109204 -32.78710576217063 -12.944776388553167 3.316500781994832 16.555828240109534 -28.708502516346737 5.590818776010087e-16 -2.0760904180510887e-32 -4.2552342906298995e-15 9.811003430345203 -40.40115382700965 -3.83468058045279 -11.54191668429346 41.5463553699008 65.99877123584406 3.1805546814635168e-15 -3.310429723537619e-32 -1.1927080055488188e-15
70.70000457763672 36.79999923706055 4.199999809265137 20.725563017031792 1.9906431629648098 -97.60854030895608 4.683018283291165e-07 1.2809451761453583e-07 0.4359565737794744 97.88187307405144 6.385081712103735 -171.05935680089215 -2.6052472231783834e-06 -1.2125259753238035e-07 30.611015883060567 3.1805546814635168e-15 -1.7655625192200634e-31 -6.3611093629270335e-15 -97.35642173309795 -2.6186372113911185 -177.38557835692117 -8.476860540565936e-07 4.683401595591685e-06 -44.66644229089658 0.0 6.361109362927033e-15 0.0 -4.052201298074611 -34.04744118512009 -11.322179936402478 3.8024144592719886 16.250356098798704 -28.957832797498693 -4.969616689786746e-17 9.93923337957349e-17 8.619178946348885e-15 9.343526951913818 -39.216885881286785 -1.5351253063951469 -7.199826394263603 47.00535416658981 63.71160871545266 -3.1805546814635164e-15 -1.5902773407317582e-15 -2.1866313435061676e-15
